<svg width="15" height="15" viewBox="0 0 15 15" fill="none" xmlns="http://www.w3.org/2000/svg">
<path fill-rule="evenodd" clip-rule="evenodd" d="M9.69669 0.5C10.9748 0.5 12.1796 1.00095 13.0893 1.91066C13.9989 2.82027 14.5 4.02521 14.5 5.30331V9.69658C14.5 10.9748 13.9989 12.1797 13.0893 13.0893C12.1797 13.9991 10.9748 14.5 9.69669 14.5H5.30331C4.02521 14.5 2.82027 13.9991 1.91066 13.0893C1.00095 12.1797 0.5 10.9748 0.5 9.69658V5.30331C0.5 4.02521 1.00095 2.82027 1.91066 1.91066C2.82027 1.00095 4.02521 0.5 5.30331 0.5H9.69669ZM3.79492 7.5C3.79492 9.54298 5.45702 11.2051 7.5 11.2051C9.54298 11.2051 11.2051 9.54298 11.2051 7.5C11.2051 5.45702 9.54298 3.79492 7.5 3.79492C5.45702 3.79492 3.79492 5.45702 3.79492 7.5ZM11.3146 4.0956C11.4224 4.0956 11.5283 4.0518 11.6046 3.97554C11.6809 3.89917 11.7247 3.79332 11.7247 3.68544C11.7247 3.57745 11.6809 3.4716 11.6046 3.39534C11.5283 3.31897 11.4224 3.27528 11.3146 3.27528C11.2065 3.27528 11.1009 3.31897 11.0247 3.39534C10.9481 3.4716 10.9044 3.57745 10.9044 3.68544C10.9044 3.79343 10.9481 3.89917 11.0247 3.97554C11.1009 4.0518 11.2066 4.0956 11.3146 4.0956ZM5.75 7.5C5.75 6.53506 6.53506 5.75 7.5 5.75C8.465 5.75 9.25 6.53506 9.25 7.5C9.25 8.46494 8.46494 9.25 7.5 9.25C6.53506 9.25 5.75 8.46494 5.75 7.5Z" fill="white"/>
</svg>
