<svg width="21" height="19" viewBox="0 0 21 19" fill="none" xmlns="http://www.w3.org/2000/svg">
<path fill-rule="evenodd" clip-rule="evenodd" d="M16.0861 17.9316C16.3679 18.1311 16.731 18.181 17.0547 18.0585C17.3785 17.9351 17.6165 17.6586 17.6882 17.3235C18.4486 13.75 20.2931 4.70513 20.9852 1.45451C21.0377 1.20951 20.9502 0.954883 20.7577 0.791258C20.5652 0.627633 20.2984 0.580383 20.0604 0.668758C16.3915 2.02676 5.0926 6.26613 0.474354 7.97501C0.181229 8.08351 -0.00952102 8.36526 0.000103981 8.67413C0.010604 8.98388 0.218854 9.25251 0.518979 9.34263C2.5901 9.96213 5.30873 10.824 5.30873 10.824C5.30873 10.824 6.57923 14.6609 7.2416 16.6121C7.32473 16.8571 7.51635 17.0496 7.76923 17.1161C8.02123 17.1818 8.29073 17.1126 8.47885 16.935C9.54285 15.9305 11.1879 14.3774 11.1879 14.3774C11.1879 14.3774 14.3134 16.669 16.0861 17.9316ZM6.45235 10.3393L7.92148 15.185L8.24785 12.1164C8.24785 12.1164 13.924 6.99676 17.1597 4.07863C17.2542 3.99288 17.2674 3.84938 17.1886 3.74876C17.1107 3.64813 16.9672 3.62451 16.8596 3.69276C13.1094 6.08763 6.45235 10.3393 6.45235 10.3393Z" fill="white"/>
</svg>
