<svg width="19" height="20" viewBox="0 0 19 20" fill="none" xmlns="http://www.w3.org/2000/svg">
<path d="M18.2959 11.5775C18.8926 6.55499 18.0092 3.38416 16.4159 1.94999L16.4167 1.94916C13.8451 -0.50001 5.16007 -0.86251 2.0834 2.05916C0.701733 3.48832 0.215066 5.58582 0.161733 8.18249C0.108399 10.78 0.0450661 15.6458 4.57923 16.9658H4.5834L4.57923 18.9817C4.57923 18.9817 4.5484 19.7983 5.07007 19.9625C5.66673 20.1558 5.93673 19.7767 7.79257 17.56C10.8959 17.8292 13.2792 17.2125 13.5501 17.1225C14.1767 16.9125 17.7226 16.4433 18.2959 11.5775ZM8.0984 16.1417C8.0984 16.1417 6.13423 18.5908 5.5234 19.2267C5.3234 19.4333 5.10423 19.4142 5.10757 19.0042C5.10757 18.735 5.12257 15.6575 5.12257 15.6575C1.2784 14.5558 1.50507 10.4125 1.54673 8.24499C1.5884 6.07666 1.98507 4.30082 3.15507 3.10499C5.85423 0.574157 13.4684 1.13999 15.4084 2.96332C17.7801 5.06582 16.9359 11.0058 16.9409 11.2083C16.4534 15.27 13.5801 15.5275 13.0517 15.7033C12.8259 15.7783 10.7301 16.3175 8.0984 16.1417Z" fill="white"/>
<path d="M9.18521 3.58084C8.86437 3.58084 8.86437 4.08084 9.18521 4.08501C11.6744 4.10417 13.7244 5.83917 13.7469 9.02167C13.7469 9.35751 14.2385 9.35334 14.2344 9.01751H14.2335C14.2069 5.58834 11.9685 3.60001 9.18521 3.58084Z" fill="white"/>
<path d="M12.4592 8.49417C12.4517 8.82583 12.9425 8.84167 12.9467 8.50583C12.9875 6.615 11.8217 5.0575 9.63086 4.89333C9.31003 4.87 9.2767 5.37417 9.5967 5.3975C11.4967 5.54167 12.4975 6.83833 12.4592 8.49417Z" fill="white"/>
<path d="M11.9343 10.645C11.5226 10.4066 11.1034 10.555 10.9301 10.7891L10.5676 11.2583C10.3834 11.4966 10.0393 11.465 10.0393 11.465C7.5276 10.8008 6.85593 8.17247 6.85593 8.17247C6.85593 8.17247 6.8251 7.81664 7.0551 7.62581L7.50843 7.25081C7.7351 7.07081 7.87843 6.63747 7.6476 6.21164C7.03093 5.09747 6.61676 4.71331 6.40593 4.41831C6.18426 4.14081 5.85093 4.07831 5.50426 4.26581H5.49676C4.77593 4.68747 3.98676 5.47664 4.23926 6.28914C4.6701 7.14581 5.46176 9.87664 7.9851 11.94C9.17093 12.9158 11.0476 13.9158 11.8443 14.1466L11.8518 14.1583C12.6368 14.42 13.4001 13.6 13.8076 12.8575V12.8516C13.9884 12.4925 13.9284 12.1525 13.6643 11.93C13.1959 11.4733 12.4893 10.9691 11.9343 10.645Z" fill="white"/>
<path d="M9.97412 6.7533C10.775 6.79996 11.1633 7.2183 11.205 8.07746C11.22 8.4133 11.7075 8.38996 11.6925 8.05413C11.6391 6.93246 11.0541 6.30746 10.0008 6.24913C9.67996 6.22996 9.64996 6.73413 9.97412 6.7533Z" fill="white"/>
</svg>
